<svg width="18" height="18" viewBox="0 0 18 18" fill="none" xmlns="http://www.w3.org/2000/svg">
<path d="M11.5071 6.747C10.9486 6.19118 10.2861 5.75081 9.55735 5.45103C8.82865 5.15126 8.04804 4.99794 7.26009 4.99985C6.47214 5.00175 5.69228 5.15883 4.96503 5.46213C4.23779 5.76542 3.57741 6.20899 3.02159 6.7675C2.46577 7.32601 2.0254 7.98853 1.72562 8.71723C1.42584 9.44593 1.27253 10.2265 1.27443 11.0145C1.27634 11.8024 1.43342 12.5823 1.73671 13.3096C2.04001 14.0368 2.48357 14.6972 3.04209 15.253C4.17005 16.3755 5.69774 17.004 7.28908 17.0002C8.88042 16.9963 10.4051 16.3605 11.5276 15.2325C12.6501 14.1045 13.2786 12.5768 13.2747 10.9855C13.2709 9.39416 12.6351 7.86953 11.5071 6.747ZM11.5071 6.747L17.2751 1M17.2751 1H13.2751M17.2751 1V5" stroke="black" stroke-width="1.25" stroke-linecap="round" stroke-linejoin="round"/>
</svg>
