<svg width="4" height="14" viewBox="0 0 4 14" fill="none" xmlns="http://www.w3.org/2000/svg">
<path d="M2.00008 2.33329L2.00008 2.33996M2.00008 6.99996L2.00008 7.00663M2.00008 11.6666L2.00008 11.6733M2.00008 2.99996C1.63189 2.99996 1.33341 2.70148 1.33341 2.33329C1.33341 1.9651 1.63189 1.66663 2.00008 1.66663C2.36827 1.66663 2.66675 1.9651 2.66675 2.33329C2.66675 2.70148 2.36827 2.99996 2.00008 2.99996ZM2.00008 7.66663C1.63189 7.66663 1.33341 7.36815 1.33341 6.99996C1.33341 6.63177 1.63189 6.33329 2.00008 6.33329C2.36827 6.33329 2.66675 6.63177 2.66675 6.99996C2.66675 7.36815 2.36827 7.66663 2.00008 7.66663ZM2.00008 12.3333C1.63189 12.3333 1.33341 12.0348 1.33341 11.6666C1.33341 11.2984 1.63189 11 2.00008 11C2.36827 11 2.66675 11.2984 2.66675 11.6666C2.66675 12.0348 2.36827 12.3333 2.00008 12.3333Z" stroke="#111827" stroke-width="2" stroke-linecap="round" stroke-linejoin="round"/>
</svg>
